<?xml version="1.0" standalone="no"?><!DOCTYPE svg PUBLIC "-//W3C//DTD SVG 1.1//EN" "http://www.w3.org/Graphics/SVG/1.1/DTD/svg11.dtd"><svg t="1550163499503" class="icon" style="" viewBox="0 0 1024 1024" version="1.1" xmlns="http://www.w3.org/2000/svg" p-id="3549" xmlns:xlink="http://www.w3.org/1999/xlink" width="200" height="200"><defs><style type="text/css"></style></defs><path d="M632 447H353.9l116.5-116.5c14.1-14.1 14.1-36.9 0-50.9-14.1-14.1-36.9-14.1-50.9 0L242 457c-7.5 7.5-11 17.4-10.5 27.2-0.5 9.8 3 19.7 10.5 27.2L419.5 689c7 7 16.2 10.5 25.5 10.5s18.4-3.5 25.5-10.5c14.1-14.1 14.1-36.9 0-50.9l-119-119H632c19.9 0 36-16.1 36-36 0-20-16.1-36.1-36-36.1z" p-id="3550" fill="#333333"></path></svg>